# xmcd
#
# Track frame offsets: 
#        150
#        16614
#        35892
#        53921
#        76083
#        91014
#        108996
#        124995
#        145109
#        163032
#        182324
#        203423
#
# Disc length: 2949 seconds
#
# Revision: 0
# Processed by: cddbd v1.5.2PL0 Copyright (c) Steve Scherf et al.
# Submitted via: ExactAudioCopy v1.0b3
#
DISCID=8a0b830c
DTITLE=Ngoc Son - Loi To Tinh De Thuong 2
DYEAR=1900
DGENRE=
TTITLE0=Loi to tinh de thuong 2
TTITLE1=Mo tinh
TTITLE2=Khuc tinh nong
TTITLE3=Tat ca cho tinh yeu
TTITLE4=Co yeu anh khong
TTITLE5=Dieu anh muon noi
TTITLE6=Neu co yeu toi
TTITLE7=Hinh bong cha gia
TTITLE8=Loi to tinh de thuong
TTITLE9=Nguoi tinh
TTITLE10=Vang trang co don
TTITLE11=hoa tau - Loi to tinh de thuong
EXTD=
EXTT0=
EXTT1=
EXTT2=
EXTT3=
EXTT4=
EXTT5=
EXTT6=
EXTT7=
EXTT8=
EXTT9=
EXTT10=
EXTT11=
PLAYORDER=
